<svg xmlns="http://www.w3.org/2000/svg" width="24" height="25" viewBox="0 0 24 25" fill="none">
											<path d="M4.3077 20C3.80257 20 3.375 19.825 3.025 19.475C2.675 19.125 2.5 18.6974 2.5 18.1923V6.8077C2.5 6.30257 2.675 5.875 3.025 5.525C3.375 5.175 3.80257 5 4.3077 5H19.6923C20.1974 5 20.625 5.175 20.975 5.525C21.325 5.875 21.5 6.30257 21.5 6.8077V18.1923C21.5 18.6974 21.325 19.125 20.975 19.475C20.625 19.825 20.1974 20 19.6923 20H4.3077ZM20 7.94225L12.4865 12.7519C12.4096 12.7955 12.3301 12.8298 12.2481 12.8548C12.166 12.8798 12.0833 12.8923 12 12.8923C11.9166 12.8923 11.834 12.8798 11.7519 12.8548C11.6699 12.8298 11.5904 12.7955 11.5135 12.7519L3.99998 7.94225V18.1923C3.99998 18.282 4.02883 18.3557 4.08653 18.4134C4.14423 18.4711 4.21795 18.5 4.3077 18.5H19.6923C19.782 18.5 19.8557 18.4711 19.9134 18.4134C19.9711 18.3557 20 18.282 20 18.1923V7.94225ZM12 11.5L19.8461 6.49998H4.15383L12 11.5ZM3.99998 8.173V7.02978V7.05957V7.02785V8.173Z" fill="#B681FF"/>
										</svg>