<svg width="18" height="18" viewBox="0 0 18 18" fill="none" xmlns="http://www.w3.org/2000/svg">
<path d="M6.51965 12.6153C4.81196 12.6153 3.36582 12.023 2.18122 10.8384C0.996605 9.65383 0.404297 8.20768 0.404297 6.49999C0.404297 4.79231 0.996605 3.34616 2.18122 2.16154C3.36582 0.976943 4.81196 0.384644 6.51965 0.384644C8.22733 0.384644 9.67348 0.976943 10.8581 2.16154C12.0427 3.34616 12.635 4.79231 12.635 6.49999C12.635 7.21409 12.5151 7.89614 12.2754 8.54614C12.0356 9.19614 11.7158 9.76153 11.3158 10.2423L17.0696 15.9961C17.2081 16.1346 17.2789 16.3087 17.2821 16.5183C17.2853 16.7279 17.2145 16.9051 17.0696 17.05C16.9248 17.1948 16.7491 17.2673 16.5427 17.2673C16.3363 17.2673 16.1607 17.1948 16.0158 17.05L10.2619 11.2961C9.76195 11.7089 9.18695 12.032 8.53695 12.2653C7.88695 12.4987 7.21451 12.6153 6.51965 12.6153ZM6.51965 11.1154C7.80811 11.1154 8.89946 10.6683 9.7937 9.77404C10.6879 8.87981 11.135 7.78846 11.135 6.49999C11.135 5.21153 10.6879 4.12018 9.7937 3.22594C8.89946 2.33171 7.80811 1.88459 6.51965 1.88459C5.23118 1.88459 4.13983 2.33171 3.2456 3.22594C2.35138 4.12018 1.90427 5.21153 1.90427 6.49999C1.90427 7.78846 2.35138 8.87981 3.2456 9.77404C4.13983 10.6683 5.23118 11.1154 6.51965 11.1154Z" fill="#7D4BFF"/>
</svg>
