<svg width="27" height="33" viewBox="0 0 27 33" fill="none" xmlns="http://www.w3.org/2000/svg">
<path d="M13.3336 16.5832C14.1434 16.5832 14.832 16.2996 15.3993 15.7323C15.9666 15.165 16.2502 14.4765 16.2502 13.6666C16.2502 12.8568 15.9666 12.1682 15.3993 11.601C14.832 11.0337 14.1434 10.75 13.3336 10.75C12.5238 10.75 11.8352 11.0337 11.268 11.601C10.7006 12.1682 10.417 12.8568 10.417 13.6666C10.417 14.4765 10.7006 15.165 11.268 15.7323C11.8352 16.2996 12.5238 16.5832 13.3336 16.5832ZM13.3336 30.0032C16.7653 26.9348 19.3593 24.007 21.1157 21.2195C22.8721 18.4321 23.7503 16.0256 23.7503 14C23.7503 10.844 22.745 8.26329 20.7343 6.25796C18.7236 4.2526 16.2567 3.24992 13.3336 3.24992C10.4105 3.24992 7.94364 4.2526 5.93295 6.25796C3.92226 8.26329 2.91691 10.844 2.91691 14C2.91691 16.0256 3.79512 18.4321 5.55153 21.2195C7.30795 24.007 9.90198 26.9348 13.3336 30.0032ZM13.3336 32.7692C13.1328 32.7692 12.9372 32.7355 12.7471 32.6682C12.5569 32.6009 12.3838 32.5032 12.2279 32.375C8.25778 28.8023 5.29678 25.4866 3.34487 22.4278C1.39295 19.3691 0.416992 16.5598 0.416992 14C0.416992 9.96151 1.7172 6.74357 4.31762 4.34613C6.91803 1.94871 9.92337 0.75 13.3336 0.75C16.7439 0.75 19.7492 1.94871 22.3496 4.34613C24.95 6.74357 26.2502 9.96151 26.2502 14C26.2502 16.5598 25.2743 19.3691 23.3224 22.4278C21.3704 25.4866 18.4094 28.8023 14.4394 32.375C14.2941 32.5032 14.1237 32.6009 13.9282 32.6682C13.7327 32.7355 13.5345 32.7692 13.3336 32.7692Z" fill="#8B8BA7"/>
</svg>
