<svg xmlns="http://www.w3.org/2000/svg" width="24" height="24" viewBox="0 0 24 24" fill="none">
											<path d="M19.4404 20.5C17.5557 20.5 15.6625 20.0618 13.7606 19.1855C11.8587 18.3092 10.1096 17.073 8.51347 15.4769C6.92374 13.8807 5.69073 12.1333 4.81445 10.2346C3.93816 8.33588 3.50002 6.44423 3.50002 4.55963C3.50002 4.25963 3.60002 4.00802 3.80002 3.80482C4.00002 3.60161 4.25002 3.5 4.55002 3.5H7.81152C8.06409 3.5 8.28685 3.58238 8.4798 3.74713C8.67275 3.91188 8.7955 4.1154 8.84805 4.3577L9.42112 7.29998C9.46087 7.57306 9.45254 7.80768 9.39612 8.00383C9.33972 8.19998 9.23844 8.36472 9.09227 8.49805L6.78267 10.7461C7.15447 11.4269 7.57916 12.0708 8.05672 12.6779C8.53429 13.2849 9.05127 13.8647 9.60767 14.4173C10.1564 14.966 10.7397 15.4756 11.3577 15.9462C11.9756 16.4167 12.643 16.8545 13.3596 17.2596L15.6038 14.9962C15.7603 14.8333 15.9497 14.7192 16.1721 14.6539C16.3946 14.5885 16.6256 14.5724 16.8654 14.6058L19.6423 15.1712C19.8948 15.2378 20.1009 15.3667 20.2605 15.5577C20.4202 15.7487 20.5 15.9654 20.5 16.2077V19.45C20.5 19.75 20.3984 20 20.1952 20.2C19.992 20.4 19.7404 20.5 19.4404 20.5Z" fill="#B681FF"/>
										</svg>