<svg width="45" height="45" viewBox="0 0 45 45" fill="none" xmlns="http://www.w3.org/2000/svg">
<rect x="0.199219" y="0.199951" width="44" height="44" rx="22" fill="white"/>
<path d="M14.7452 29.6999C14.24 29.6999 13.8125 29.5249 13.4625 29.1749C13.1125 28.8249 12.9375 28.3973 12.9375 27.8922V16.5077C12.9375 16.0025 13.1125 15.575 13.4625 15.225C13.8125 14.875 14.24 14.7 14.7452 14.7H26.1297C26.6349 14.7 27.0624 14.875 27.4124 15.225C27.7624 15.575 27.9374 16.0025 27.9374 16.5077V21.0846L30.6739 18.3481C30.8278 18.1942 30.9967 18.1574 31.1807 18.2375C31.3646 18.3176 31.4566 18.4647 31.4566 18.6788V25.721C31.4566 25.9351 31.3646 26.0822 31.1807 26.1624C30.9967 26.2425 30.8278 26.2056 30.6739 26.0518L27.9374 23.3153V27.8922C27.9374 28.3973 27.7624 28.8249 27.4124 29.1749C27.0624 29.5249 26.6349 29.6999 26.1297 29.6999H14.7452ZM14.7452 28.1999H26.1297C26.2195 28.1999 26.2932 28.1711 26.3509 28.1134C26.4086 28.0557 26.4375 27.982 26.4375 27.8922V16.5077C26.4375 16.4179 26.4086 16.3442 26.3509 16.2865C26.2932 16.2288 26.2195 16.1999 26.1297 16.1999H14.7452C14.6554 16.1999 14.5817 16.2288 14.524 16.2865C14.4663 16.3442 14.4375 16.4179 14.4375 16.5077V27.8922C14.4375 27.982 14.4663 28.0557 14.524 28.1134C14.5817 28.1711 14.6554 28.1999 14.7452 28.1999Z" fill="#32B04E"/>
</svg>
